<svg width="21" height="10" viewBox="0 0 21 10" fill="none" xmlns="http://www.w3.org/2000/svg">
<path d="M19.9779 4.53207L16.1313 0.689507C15.9359 0.494123 15.6225 0.494123 15.4271 0.689507C15.2317 0.884892 15.2317 1.19832 15.4271 1.39371L18.423 4.38961L1.37567 4.38961C1.09888 4.38961 0.875 4.61348 0.875 4.89028C0.875 5.16708 1.09888 5.39095 1.37567 5.39095L18.423 5.39095L15.4271 8.37871C15.2317 8.5741 15.2317 8.88753 15.4271 9.08291C15.5248 9.1806 15.651 9.22945 15.7812 9.22945C15.9115 9.22945 16.0377 9.1806 16.1354 9.08291L19.982 5.23627C20.1733 5.04496 20.1733 4.72746 19.9779 4.53207Z" fill="#222222" stroke="#222222" stroke-width="0.75"/>
</svg>
