<svg width="92" height="80" viewBox="0 0 92 80" fill="none" xmlns="http://www.w3.org/2000/svg">
<g clip-path="url(#clip0)">
<path fill-rule="evenodd" clip-rule="evenodd" d="M5.6051 23.4395V10.7006C5.6051 8.61147 6.86319 6.81835 8.66243 6.0321V23.4395H5.6051ZM8.66243 42.8026V59.7004C6.86319 58.9142 5.6051 57.121 5.6051 55.0319V42.8026H8.66243Z" fill="#FEE040"/>
<path opacity="0.2" fill-rule="evenodd" clip-rule="evenodd" d="M82.5478 27.5159V6.0321C84.3465 6.81835 85.6051 8.61147 85.6051 10.7006V27.5159H82.5478ZM85.6051 38.7261V55.0319C85.6051 57.121 84.3465 58.9142 82.5478 59.7004V38.7261H85.6051Z" fill="#44C374"/>
<path fill-rule="evenodd" clip-rule="evenodd" d="M6.11462 74.3949L8.15284 72.3567H10.7006V76.4331H8.15284L6.11462 74.3949Z" fill="#FEE040"/>
<path fill-rule="evenodd" clip-rule="evenodd" d="M6.61607 80.0005L2.33837 75.7299H0.0769653V72.8831H2.33837L6.61607 68.613H91.335V80.0005H6.61607ZM11.4844 71.4599H7.79722L4.94525 74.3068L7.79722 77.1536H11.4844V71.4599ZM34.2986 71.4599H14.3363V77.1536H34.2986V71.4599ZM77.0762 71.4599H37.1506V77.1536H77.0762V71.4599ZM88.4831 71.4599H79.9277V77.1536H88.4831V71.4599ZM20.0398 75.7299H17.1878V72.8831H20.0398V75.7299ZM25.7432 75.7299H22.8917V72.8831H25.7432V75.7299ZM31.4472 75.7299H28.5952V72.8831H31.4472V75.7299ZM82.7796 65.7656H8.63238C3.91493 65.7656 0.0769653 61.9348 0.0769653 57.225V8.82701C0.0769653 4.11771 3.91493 0.286377 8.63238 0.286377H82.7796C87.4976 0.286377 91.335 4.11771 91.335 8.82701V57.225C91.335 61.9348 87.4976 65.7656 82.7796 65.7656ZM11.4844 3.13326H8.63238C5.4869 3.13326 2.92894 5.68714 2.92894 8.82701V57.225C2.92894 60.3654 5.4869 62.9187 8.63238 62.9187H11.4844V3.13326ZM77.0762 3.13326H14.3363V62.9187H77.0762V3.13326ZM88.4831 8.82701C88.4831 5.68714 85.9251 3.13326 82.7796 3.13326H79.9277V62.9187H82.7796C85.9251 62.9187 88.4831 60.3654 88.4831 57.225V8.82701ZM82.7796 30.1794H85.6316V35.8731H82.7796V30.1794ZM25.7432 19.6255L30.4387 14.9381L32.4551 16.9508L26.7516 22.6446C26.4729 22.9228 26.108 23.0619 25.7432 23.0619C25.3784 23.0619 25.014 22.9228 24.7353 22.6446L20.4576 18.3745L22.4739 16.3618L25.7432 19.6255ZM25.7432 33.8604L30.4387 29.173L32.4551 31.1857L26.7516 36.8795C26.4729 37.1577 26.108 37.2963 25.7432 37.2963C25.3784 37.2963 25.014 37.1577 24.7353 36.8795L20.4576 32.6089L22.4739 30.5962L25.7432 33.8604ZM25.7432 48.0948L30.4387 43.4074L32.4551 45.4201L26.7516 51.1139C26.4729 51.3921 26.108 51.5312 25.7432 51.5312C25.3784 51.5312 25.014 51.3921 24.7353 51.1139L20.4576 46.8438L22.4739 44.8311L25.7432 48.0948ZM48.558 17.3682H37.1506V14.5213H48.558V17.3682ZM59.9654 23.0619H37.1506V20.215H59.9654V23.0619ZM71.3722 31.6026H37.1506V28.7557H71.3722V31.6026ZM45.706 37.2963H37.1506V34.4494H45.706V37.2963ZM51.41 34.4494V37.2963H48.558V34.4494H51.41ZM57.1134 45.8375H37.1506V42.9906H57.1134V45.8375ZM71.3722 51.5312H37.1506V48.6843H71.3722V51.5312ZM54.2614 34.4494H65.6688V37.2963H54.2614V34.4494ZM59.9654 42.9906H71.3722V45.8375H59.9654V42.9906ZM51.41 14.5213H71.3722V17.3682H51.41V14.5213ZM5.78091 25.9088H8.63238V40.1437H5.78091V25.9088Z" fill="#35AB61"/>
</g>
<defs>
<clipPath id="clip0">
<rect width="91.7197" height="80" fill="white"/>
</clipPath>
</defs>
</svg>
