<svg width="80" height="80" viewBox="0 0 80 80" fill="none" xmlns="http://www.w3.org/2000/svg">
<g clip-path="url(#clip0)">
<path fill-rule="evenodd" clip-rule="evenodd" d="M28.1564 14.7486H53.6312V17.4302H28.1564V14.7486Z" fill="#FEE040"/>
<path opacity="0.2" fill-rule="evenodd" clip-rule="evenodd" d="M61.0056 76.4246C58.1672 76.4246 55.8659 74.1233 55.8659 71.2849C55.8659 68.4465 58.1672 66.1452 61.0056 66.1452C63.844 66.1452 66.1453 68.4465 66.1453 71.2849C66.1453 74.1233 63.844 76.4246 61.0056 76.4246ZM61.0056 67.486C58.9077 67.486 57.2067 69.187 57.2067 71.2849C57.2067 73.3828 58.9077 75.0838 61.0056 75.0838C63.1035 75.0838 64.8045 73.3828 64.8045 71.2849C64.8045 69.187 63.1035 67.486 61.0056 67.486ZM60.7821 4.46927H63.0168V17.4302H60.7821V4.46927ZM46.9274 4.46927H49.162V7.59776H46.9274V4.46927ZM22.5698 76.4246C19.7314 76.4246 17.4302 74.1233 17.4302 71.2849C17.4302 68.4465 19.7314 66.1452 22.5698 66.1452C25.4083 66.1452 27.7095 68.4465 27.7095 71.2849C27.7095 74.1233 25.4083 76.4246 22.5698 76.4246ZM22.5698 67.486C20.472 67.486 18.771 69.187 18.771 71.2849C18.771 73.3828 20.472 75.0838 22.5698 75.0838C24.6677 75.0838 26.3687 73.3828 26.3687 71.2849C26.3687 69.187 24.6677 67.486 22.5698 67.486Z" fill="#44C374"/>
<path fill-rule="evenodd" clip-rule="evenodd" d="M23.4087 39.1416C23.9491 39.7136 24.2203 40.0006 25.0002 40.0006C25.7801 40.0006 26.0514 39.7136 26.5922 39.1416C27.2465 38.4488 28.1426 37.5004 30.0004 37.5004C31.8583 37.5004 32.7553 38.4497 33.4096 39.1425C33.9495 39.7136 34.2203 40.0006 35.0002 40.0006C35.7801 40.0006 36.0514 39.7136 36.5922 39.1416C37.2465 38.4488 38.1426 37.5004 40.0005 37.5004C41.857 37.5004 42.7544 38.4488 43.4087 39.1416C43.9495 39.7136 44.2203 40.0006 45.0002 40.0006C45.7806 40.0006 46.0514 39.7136 46.5922 39.1416C47.2465 38.4488 48.1426 37.5004 50.0005 37.5004C51.8583 37.5004 52.7558 38.4497 53.4087 39.1425C53.9495 39.7136 54.219 40.0006 55.0007 40.0006C55.7819 40.0006 56.0527 39.7136 56.5913 39.1429C57.2451 38.4497 58.1399 37.5004 60.0005 37.5004C61.861 37.5004 62.7558 38.4497 63.4101 39.1429C63.9482 39.7136 64.2194 40.0006 65.0007 40.0006V42.5007C63.1401 42.5007 62.2454 41.5514 61.5911 40.8578C61.053 40.2875 60.7817 40.0006 60.0005 40.0006C59.2192 40.0006 58.9484 40.2875 58.4098 40.8578C57.7555 41.5514 56.8608 42.5007 55.0007 42.5007C53.1423 42.5007 52.2454 41.5514 51.5924 40.8587C51.0516 40.2875 50.7817 40.0006 50.0005 40.0006C49.2206 40.0006 48.9493 40.2875 48.4085 40.8591C47.7542 41.5518 46.8581 42.5007 45.0002 42.5007C43.1437 42.5007 42.2467 41.5518 41.592 40.8591C41.0512 40.2875 40.7803 40.0006 40.0005 40.0006C39.2201 40.0006 38.9493 40.2875 38.4085 40.8591C37.7542 41.5518 36.8581 42.5007 35.0002 42.5007C33.1423 42.5007 32.2463 41.5518 31.592 40.8591C31.0525 40.2875 30.7817 40.0006 30.0004 40.0006C29.2201 40.0006 28.9493 40.2875 28.4085 40.8591C27.7542 41.5518 26.8581 42.5007 25.0002 42.5007C23.1437 42.5007 22.2463 41.5518 21.592 40.8591C21.0512 40.2875 20.7803 40.0006 20 40.0006V37.5004C21.857 37.5004 22.754 38.4488 23.4087 39.1416ZM20 27.5004C21.857 27.5004 22.754 28.4493 23.4087 29.142C23.9491 29.7136 24.2203 30.0006 25.0002 30.0006C25.7801 30.0006 26.0514 29.7136 26.5922 29.142C27.2465 28.4493 28.1426 27.5004 30.0004 27.5004C31.8583 27.5004 32.7553 28.4497 33.4096 29.1425C33.9495 29.7136 34.2203 30.0006 35.0002 30.0006C35.7801 30.0006 36.0514 29.7136 36.5922 29.142C37.2465 28.4493 38.1426 27.5004 40.0005 27.5004C41.857 27.5004 42.7544 28.4493 43.4087 29.142C43.9495 29.7136 44.2203 30.0006 45.0002 30.0006C45.7806 30.0006 46.0514 29.7136 46.5922 29.142C47.2465 28.4493 48.1426 27.5004 50.0005 27.5004C51.8583 27.5004 52.7558 28.4497 53.4087 29.1425C53.9495 29.7136 54.219 30.0006 55.0007 30.0006C55.7819 30.0006 56.0527 29.7136 56.5913 29.1429C57.2451 28.4497 58.1399 27.5004 60.0005 27.5004C61.861 27.5004 62.7558 28.4497 63.4101 29.1429C63.9482 29.7136 64.2194 30.0006 65.0007 30.0006C65.7806 30.0006 66.0514 29.7136 66.5922 29.142C67.2465 28.4493 68.1426 27.5004 70.0005 27.5004V30.0006C69.2206 30.0006 68.9497 30.2875 68.4089 30.8591C67.7546 31.5523 66.8586 32.5007 65.0007 32.5007C63.1401 32.5007 62.2454 31.5514 61.5911 30.8582C61.053 30.2875 60.7817 30.0006 60.0005 30.0006C59.2192 30.0006 58.9484 30.2875 58.4098 30.8582C57.7555 31.5514 56.8608 32.5007 55.0007 32.5007C53.1423 32.5007 52.2454 31.5514 51.5924 30.8587C51.0516 30.2875 50.7817 30.0006 50.0005 30.0006C49.2206 30.0006 48.9493 30.2875 48.4085 30.8591C47.7542 31.5523 46.8581 32.5007 45.0002 32.5007C43.1437 32.5007 42.2467 31.5523 41.592 30.8591C41.0512 30.2875 40.7803 30.0006 40.0005 30.0006C39.2201 30.0006 38.9493 30.2875 38.4085 30.8591C37.7542 31.5523 36.8581 32.5007 35.0002 32.5007C33.1423 32.5007 32.2463 31.5523 31.592 30.8591C31.0525 30.2875 30.7817 30.0006 30.0004 30.0006C29.2201 30.0006 28.9493 30.2875 28.4085 30.8591C27.7542 31.5523 26.8581 32.5007 25.0002 32.5007C23.1437 32.5007 22.2463 31.5523 21.592 30.8591C21.0512 30.2875 20.7803 30.0006 20 30.0006V27.5004ZM80.0005 80.0001H0V77.5H16.4013C15.0445 76.1726 14.1113 74.4131 13.8409 72.4417C7.49095 71.854 2.50011 66.5016 2.50011 60.0001C2.50011 55.386 5.02033 51.3588 8.74994 49.1934V10.001C8.74994 8.62224 7.62816 7.5009 6.25028 7.5009H0V5.00078H11.2501C14.0076 5.00078 16.2503 7.24391 16.2503 10.001V21.2506V47.5004H67.8753L76.9658 22.5007H18.7504V20.0006H78.7504C79.1584 20.0006 79.5406 20.1999 79.7748 20.5337C80.008 20.8676 80.0653 21.2949 79.9249 21.6779L69.9875 49.0053C69.8525 52.3326 67.1106 55.0003 63.7506 55.0003H15.0002C12.2427 55.0003 10 57.2435 10 60.0001C10 62.7572 12.2427 65.0003 15.0002 65.0003H16.3884C17.9669 63.4562 20.1229 62.5002 22.5001 62.5002C24.8773 62.5002 27.0333 63.4562 28.6123 65.0003H55.1388C56.7173 63.4562 58.8733 62.5002 61.2505 62.5002C66.0746 62.5002 70.0005 66.4256 70.0005 71.2502C70.0005 73.6975 68.9877 75.9107 67.3622 77.5H80.0005V80.0001ZM13.7502 21.2506V10.001C13.7502 8.62224 12.6284 7.5009 11.2501 7.5009H10.5739C11.0011 8.23743 11.2501 9.08972 11.2501 10.001V48.085C12.0527 47.8316 12.8872 47.6497 13.7502 47.5639V21.2506ZM7.50034 60.0001C7.50034 55.8647 10.8644 52.5002 15.0002 52.5002H63.7506C65.3801 52.5002 66.7705 51.4553 67.2867 50.0006H15.0002C9.48603 50.0006 5.00022 54.4864 5.00022 60.0001C5.00022 65.1282 8.88224 69.3623 13.8606 69.9304C13.9924 69.0656 14.2498 68.2437 14.6159 67.4808C10.6592 67.2788 7.50034 64.0064 7.50034 60.0001ZM55.1513 77.5C53.8087 76.1856 52.8809 74.4479 52.6002 72.5002H31.1504C30.8697 74.4479 29.9419 76.1856 28.5993 77.5H55.1513ZM22.5001 65.0003C19.0543 65.0003 16.2503 67.8044 16.2503 71.2502C16.2503 74.696 19.0543 77.5 22.5001 77.5C25.9464 77.5 28.7504 74.696 28.7504 71.2502C28.7504 67.8044 25.9464 65.0003 22.5001 65.0003ZM30.3937 67.5005C30.7651 68.2781 31.023 69.117 31.1504 70.0001H52.6002C52.7276 69.117 52.9855 68.2781 53.3569 67.5005H30.3937ZM67.5008 71.2502C67.5008 67.8044 64.6963 65.0003 61.2505 65.0003C57.8043 65.0003 55.0007 67.8044 55.0007 71.2502C55.0007 74.696 57.8043 77.5 61.2505 77.5C64.6963 77.5 67.5008 74.696 67.5008 71.2502ZM61.2505 73.7503C59.8722 73.7503 58.7504 72.6289 58.7504 71.2502C58.7504 69.8714 59.8722 68.7501 61.2505 68.7501C62.6288 68.7501 63.7506 69.8714 63.7506 71.2502C63.7506 72.6289 62.6288 73.7503 61.2505 73.7503ZM22.5001 73.7503C21.1222 73.7503 20 72.6289 20 71.2502C20 69.8714 21.1222 68.7501 22.5001 68.7501C23.8784 68.7501 25.0002 69.8714 25.0002 71.2502C25.0002 72.6289 23.8784 73.7503 22.5001 73.7503ZM65.0007 2.50067H58.7504V6.25084C58.7504 6.9409 58.1913 7.5009 57.5003 7.5009H52.5006C51.8096 7.5009 51.2505 6.9409 51.2505 6.25084V2.50067H45.0002V7.5009H42.5006V1.25106C42.5006 0.56056 43.0597 0.00100708 43.7502 0.00100708H52.5006H57.5003H66.2507C66.9412 0.00100708 67.5008 0.56056 67.5008 1.25106V17.5009H65.0007V2.50067ZM53.7506 2.50067V5.00078H56.2503V2.50067H53.7506ZM58.7504 11.2506V17.5009H56.2503V12.5007H26.2503V17.5009H23.7502V11.2506C23.7502 10.5606 24.3093 10.001 25.0002 10.001H57.5003C58.1913 10.001 58.7504 10.5606 58.7504 11.2506Z" fill="#35AB61"/>
</g>
<defs>
<clipPath id="clip0">
<rect width="80" height="80" fill="white"/>
</clipPath>
</defs>
</svg>
