<svg width="80" height="80" viewBox="0 0 80 80" fill="none" xmlns="http://www.w3.org/2000/svg">
<path fill-rule="evenodd" clip-rule="evenodd" d="M4.88892 54.6667H20.4445V70.6667H4.88892V54.6667Z" fill="#FEE040"/>
<path opacity="0.2" fill-rule="evenodd" clip-rule="evenodd" d="M27.5555 54.6667H35.5555V75.5555H27.5555V54.6667Z" fill="#44C374"/>
<path opacity="0.2" fill-rule="evenodd" clip-rule="evenodd" d="M31.1111 42L28.4445 48.4444H34.2222L31.1111 41.7778V42Z" fill="#44C374"/>
<path fill-rule="evenodd" clip-rule="evenodd" d="M21.7778 48.4444H6.22223L11.1111 36.8889H26.6667L21.7778 48.4444ZM16.4445 38.6667C14.2351 38.6667 12.4445 40.4573 12.4445 42.6667C12.4445 44.876 14.2351 46.6667 16.4445 46.6667C18.6538 46.6667 20.4445 44.876 20.4445 42.6667C20.4445 40.4573 18.6538 38.6667 16.4445 38.6667Z" fill="#FEE040"/>
<path fill-rule="evenodd" clip-rule="evenodd" d="M63.756 79.9996C63.3373 79.9996 62.9235 79.9787 62.5124 79.9471V79.9996H40.1258H38.8818H23.9573H22.7138H0.327087V50.1227H0.751087L7.78931 33.684V27.7147H32.6635V33.6831L33.6635 36.0191C35.6711 30.5382 38.8818 21.0716 38.8818 17.7556V15.048C37.4351 14.5338 36.3946 13.1538 36.3946 11.5311C36.3946 9.47156 38.0684 7.79645 40.1258 7.79645H52.5626C54.62 7.79645 56.2938 9.47156 56.2938 11.5311C56.2938 13.1538 55.2533 14.5338 53.8062 15.048V17.7556C53.8062 20.2285 55.604 25.7925 57.1902 30.7018C58.7106 35.4111 60.0249 39.4791 60.0249 41.4084V48.0724C61.2235 47.788 62.4715 47.6329 63.756 47.6329C72.6711 47.6329 79.9244 54.8929 79.9244 63.816C79.9244 72.7396 72.6711 79.9996 63.756 79.9996ZM40.1258 77.5098H55.1555C50.944 74.8502 48.0413 70.3018 47.6404 65.0609H40.1258V77.5098ZM25.2013 77.5098H37.6382V52.6124H25.2013V77.5098ZM2.81464 77.5098H22.7138V52.6124H2.81464V77.5098ZM3.45642 50.1227H22.7138H23.1378L29.5333 35.184H9.85287L3.45642 50.1227ZM30.176 30.2044H10.2769V32.6942H30.176V30.2044ZM31.4195 37.1L25.8431 50.1227H36.9964L31.4195 37.1ZM52.5626 10.2862H40.1258C39.4395 10.2862 38.8818 10.8445 38.8818 11.5311C38.8818 12.2182 39.4395 12.776 40.1258 12.776H52.5626C53.2489 12.776 53.8062 12.2182 53.8062 11.5311C53.8062 10.8445 53.2489 10.2862 52.5626 10.2862ZM57.5378 41.4084C57.5378 39.8716 56.1578 35.5982 54.8231 31.4676C53.1009 26.1342 51.3191 20.62 51.3191 17.7556V15.2658H41.3693V17.7556C41.3693 22.8538 35.452 38.3653 35.0818 39.3311L36.504 42.6533H57.5378V41.4084ZM57.5378 45.1431H37.5698L39.7018 50.1227H40.1258V62.5711H47.6404C48.1129 56.3911 52.0649 51.1707 57.5378 48.8796V45.1431ZM63.756 50.1227C56.2124 50.1227 50.0755 56.2653 50.0755 63.816C50.0755 71.3671 56.2124 77.5098 63.756 77.5098C71.2995 77.5098 77.4369 71.3671 77.4369 63.816C77.4369 56.2653 71.2995 50.1227 63.756 50.1227ZM63.756 75.02V72.5302C68.556 72.5302 72.4622 68.6209 72.4622 63.816H74.9493C74.9493 69.9942 69.9284 75.02 63.756 75.02ZM62.5124 52.6124H65V55.1022H62.5124V52.6124ZM16.4951 45.1431C15.124 45.1431 14.008 44.0258 14.008 42.6533C14.008 41.2809 15.124 40.1636 16.4951 40.1636C17.8662 40.1636 18.9826 41.2809 18.9826 42.6533C18.9826 44.0258 17.8662 45.1431 16.4951 45.1431ZM7.78931 72.5302H17.7391V75.02H7.78931V72.5302ZM12.764 12.776V10.2862H22.7138V12.776H12.764ZM12.764 5.30667H32.6635V7.79645H12.764V5.30667ZM69.9746 9.5569L65 4.57734V45.1431H62.5124V2.8169H10.2769V25.2249H7.78931V0.327118H65V1.0569L72.4622 8.52578V45.1431H69.9746V9.5569Z" fill="#35AB61"/>
</svg>
